<?xml version="1.0" encoding="utf-8"?>
<!-- Generator: Adobe Illustrator 25.3.1, SVG Export Plug-In . SVG Version: 6.00 Build 0)  -->
<svg version="1.1" id="Layer_1" xmlns="http://www.w3.org/2000/svg" xmlns:xlink="http://www.w3.org/1999/xlink" x="0px" y="0px"
	 viewBox="0 0 512 512" style="enable-background:new 0 0 512 512;" xml:space="preserve">
<style type="text/css">
	.st0{fill:#EEEDF2;stroke:#FFFFFF;stroke-miterlimit:10;}
	.st1{fill:none;stroke:#1E247E;stroke-width:6;stroke-linecap:round;stroke-miterlimit:10;}
	.st2{fill:#D3D5E7;}
	.st3{fill:#FFFFFF;stroke:#1E247E;stroke-width:6;stroke-linecap:round;stroke-miterlimit:10;}
	.st4{fill:#ECECEE;}
	.st5{fill:none;stroke:#1E247E;stroke-width:3;stroke-linecap:round;stroke-miterlimit:10;}
	.st6{fill:#DA867D;stroke:#1E247E;stroke-width:6;stroke-linecap:round;stroke-miterlimit:10;}
	.st7{opacity:0.3;fill:#A2655F;enable-background:new    ;}
	.st8{fill:none;stroke:#1E247E;stroke-width:2.5;stroke-linecap:round;stroke-miterlimit:10;}
	.st9{fill:#FFFFFF;stroke:#1E247E;stroke-width:4;stroke-linecap:round;stroke-miterlimit:10;}
	.st10{fill:#79CAA1;stroke:#1E247E;stroke-width:4;stroke-linecap:round;stroke-miterlimit:10;}
	.st11{fill:#1E247E;}
	.st12{fill:none;stroke:#1E247E;stroke-width:5;stroke-linecap:round;stroke-miterlimit:10;}
	.st13{fill:#F0C330;stroke:#1E247E;stroke-width:5;stroke-linecap:round;stroke-miterlimit:10;}
	.st14{fill:#F0C330;stroke:#1E247E;stroke-width:4.5;stroke-linecap:round;stroke-miterlimit:10;}
	.st15{fill:#FFFFFF;}
</style>
<g>
	<g id="Calendar_and_alarm_clock">
		<circle id="Background_5_" class="st0" cx="254.7" cy="242.6" r="215.5"/>
		<g id="Bottom_line_1_">
			<line id="Right_22_" class="st1" x1="451.5" y1="458.4" x2="470.3" y2="458.4"/>
			<line id="Middle_13_" class="st1" x1="64.9" y1="458.7" x2="441.9" y2="458.7"/>
			<line id="Left_23_" class="st1" x1="40.3" y1="458.7" x2="51.9" y2="458.7"/>
		</g>
		<g id="Calendar">
			<path id="Shadow_20_" class="st2" d="M423.6,239.3v183.6c0,13.5-10.9,24.4-24.4,24.4H131.7c-13.5,0-24.4-10.9-24.4-24.4V239.3
				c0-11.9,9.6-21.5,21.5-21.5H402C413.9,217.8,423.6,227.5,423.6,239.3z"/>
			<path id="Shape_28_" class="st3" d="M410.9,250.7v183.6c0,13.5-10.9,24.4-24.4,24.4H119c-13.5,0-24.4-10.9-24.4-24.4V250.7
				c0-11.9,9.6-21.5,21.5-21.5h273.2C401.3,229.2,410.9,238.8,410.9,250.7z"/>
			<g id="Content_2_">
				<g id="Days">
					<circle id="_x31_4" class="st2" cx="361.2" cy="418.9" r="13.3"/>
					<circle id="_x31_3" class="st4" cx="308.5" cy="418.9" r="13.3"/>
					<circle id="_x31_2" class="st4" cx="252.8" cy="418.9" r="13.3"/>
					<circle id="_x31_1" class="st4" cx="197.1" cy="418.9" r="13.3"/>
					<circle id="_x31_0" class="st4" cx="144.3" cy="418.9" r="13.3"/>
					<circle id="_x39_" class="st4" cx="361.2" cy="369.1" r="13.3"/>
					<circle id="_x38_" class="st4" cx="308.5" cy="369.1" r="13.3"/>
					<circle id="_x37_" class="st2" cx="197.1" cy="369.1" r="13.3"/>
					<circle id="_x36_" class="st4" cx="144.3" cy="369.1" r="13.3"/>
					<circle id="_x35_" class="st2" cx="361.2" cy="319.4" r="13.3"/>
					<circle id="_x34_" class="st4" cx="308.5" cy="319.4" r="13.3"/>
					<circle id="_x33_" class="st4" cx="252.8" cy="319.4" r="13.3"/>
					<circle id="_x32_" class="st4" cx="197.1" cy="319.4" r="13.3"/>
					<circle id="_x31_" class="st4" cx="144.3" cy="319.4" r="13.3"/>
				</g>
				<g>
					<line class="st5" x1="398.2" y1="387.7" x2="398.2" y2="381.5"/>
					<line class="st5" x1="398.2" y1="394.7" x2="398.2" y2="417.9"/>
				</g>
			</g>
			<g id="Top_10_">
				<path class="st6" d="M410.9,250.7V278H94.6v-27.3c0-11.9,9.6-21.5,21.5-21.5h273.2C401.3,229.2,410.9,238.8,410.9,250.7z"/>
				<g>
					<g>
						<circle class="st7" cx="185.6" cy="248.8" r="9.7"/>
						<circle class="st7" cx="321.3" cy="248.8" r="9.7"/>
					</g>
					<g>
						<line class="st1" x1="185.6" y1="212.8" x2="185.6" y2="248.8"/>
						<line class="st1" x1="321.3" y1="212.8" x2="321.3" y2="248.8"/>
					</g>
				</g>
				<path class="st5" d="M105.7,246.4c1.5-4.2,5.5-7.2,10.2-7.2"/>
				<g id="Lines_7_">
					<line id="Bottom_10_" class="st8" x1="224.6" y1="259.1" x2="231.2" y2="264.2"/>
					<line id="Middle_12_" class="st8" x1="224.6" y1="252.9" x2="237.7" y2="262.9"/>
					<line id="Top_11_" class="st8" x1="234.1" y1="253.7" x2="237.7" y2="256.5"/>
				</g>
			</g>
		</g>
		<g id="Alarm_clock">
			<circle id="Shape_27_" class="st9" cx="312" cy="139.4" r="35.5"/>
			<g id="Alarm">
				<path class="st10" d="M289.8,99.1L274,116.4c-0.2,0.2-0.4,0.2-0.6,0c-4.7-4.6-4.9-12.1-0.5-16.9c4.4-4.9,11.9-5.3,16.9-1
					C290,98.6,290,98.9,289.8,99.1z"/>
				<path class="st10" d="M334.1,99.1l15.9,17.4c0.2,0.2,0.4,0.2,0.6,0c4.7-4.6,4.9-12.1,0.5-16.9c-4.4-4.9-11.9-5.3-16.9-1
					C334,98.6,334,98.9,334.1,99.1z"/>
			</g>
			<g id="Hours">
				<g>
					<g>
						<path class="st11" d="M312,112.3c1.9,0,1.9-3,0-3S310.1,112.3,312,112.3L312,112.3z"/>
					</g>
				</g>
				<g>
					<g>
						<path class="st11" d="M311.9,170.4c1.9,0,1.9-3,0-3S310,170.4,311.9,170.4L311.9,170.4z"/>
					</g>
				</g>
				<g>
					<g>
						<path class="st11" d="M282.3,140.8c1.9,0,1.9-3,0-3S280.4,140.8,282.3,140.8L282.3,140.8z"/>
					</g>
				</g>
				<g>
					<g>
						<path class="st11" d="M340.9,140.8c1.9,0,1.9-3,0-3S339,140.8,340.9,140.8L340.9,140.8z"/>
					</g>
				</g>
				<g>
					<g>
						<path class="st11" d="M289.9,121.9c1.9,0,1.9-3,0-3S288,121.9,289.9,121.9L289.9,121.9z"/>
					</g>
				</g>
				<g>
					<g>
						<path class="st11" d="M334.6,121.9c1.9,0,1.9-3,0-3S332.7,121.9,334.6,121.9L334.6,121.9z"/>
					</g>
				</g>
				<g>
					<g>
						<path class="st11" d="M334.6,159.5c1.9,0,1.9-3,0-3S332.7,159.5,334.6,159.5L334.6,159.5z"/>
					</g>
				</g>
				<g>
					<g>
						<path class="st11" d="M289.9,160.7c1.9,0,1.9-3,0-3S288,160.7,289.9,160.7L289.9,160.7z"/>
					</g>
				</g>
			</g>
			<path id="Arrows" class="st12" d="M311.9,119.4v20.1c0,0.1,0,0.2,0.1,0.2l11.5,10.2"/>
		</g>
		<g id="Stars">
			<path id="Middle_bottom" class="st13" d="M251.7,345.6l6.2,12.6l13.9,2c0.2,0,0.3,0.3,0.1,0.4l-10.1,9.8l2.4,13.9
				c0,0.2-0.2,0.3-0.3,0.2l-12.5-6.6l-12.5,6.6c-0.2,0.1-0.4-0.1-0.3-0.2l2.4-13.9l-10.1-9.8c-0.1-0.1-0.1-0.4,0.1-0.4l13.9-2
				l6.2-12.6C251.4,345.4,251.6,345.4,251.7,345.6z"/>
			<path id="Right_21_" class="st13" d="M420.9,161.2l0.5,14.1l11.9,7.6c0.2,0.1,0.1,0.4,0,0.4L420,188l-3.5,13.6
				c0,0.2-0.3,0.2-0.4,0.1l-8.7-11.1l-14.1,0.8c-0.2,0-0.3-0.2-0.2-0.4l7.9-11.7l-5.1-13.1c-0.1-0.2,0.1-0.4,0.3-0.3l13.5,3.9
				l10.9-8.9C420.7,160.9,420.9,161,420.9,161.2z"/>
			<path id="Left_top" class="st13" d="M153.7,103.6l8.5,17.2l19,2.8c0.3,0,0.4,0.4,0.2,0.6l-13.7,13.4l3.2,18.9
				c0,0.3-0.2,0.5-0.5,0.3l-17-8.9l-17,8.9c-0.2,0.1-0.5-0.1-0.5-0.3l3.2-18.9l-13.7-13.4c-0.2-0.2-0.1-0.5,0.2-0.6l19-2.8l8.5-17.2
				C153.2,103.4,153.6,103.4,153.7,103.6z"/>
			<path id="Left_bottom" class="st14" d="M83.3,186.3l5.5,11.1l12.2,1.8c0.2,0,0.2,0.2,0.1,0.4l-8.8,8.6l2.1,12.2
				c0,0.2-0.1,0.3-0.3,0.2l-10.9-5.7l-10.9,5.7c-0.2,0.1-0.3,0-0.3-0.2l2.1-12.2l-8.8-8.6c-0.1-0.1-0.1-0.3,0.1-0.4l12.2-1.8
				l5.5-11.1C83,186.2,83.3,186.2,83.3,186.3z"/>
		</g>
		<g id="Sparkles_2_">
			<path id="_x34_th" class="st15" d="M461.5,217.6c-12.9-0.7-12.6-15-12.6-15c-0.3,15.8-13.3,15-13.3,15s13.3,1.3,13.3,14.6
				C449,232.3,450.6,218.9,461.5,217.6"/>
			<path id="_x33_rd_1_" class="st15" d="M273.4,188.7c-12.9-0.7-12.6-15-12.6-15c-0.3,15.8-13.3,15-13.3,15s13.3,1.3,13.3,14.6
				C260.8,203.4,262.5,190,273.4,188.7"/>
			<path id="_x32_nd_1_" class="st15" d="M253.3,168.5c-22.4-1.2-21.8-26-21.8-26c-0.6,27.3-23,26-23,26s23,2.2,23,25.4
				C231.5,193.9,234.4,170.7,253.3,168.5"/>
			<path id="_x31_st_1_" class="st15" d="M240.4,84.7c-12.4-0.6-12.1-14.5-12.1-14.5c-0.3,15.2-12.8,14.5-12.8,14.5
				s12.8,1.2,12.8,14.1C228.2,98.8,229.8,85.9,240.4,84.7"/>
		</g>
	</g>
</g>
</svg>
