<?xml version="1.0" encoding="utf-8"?>
<!-- Generator: Adobe Illustrator 25.3.1, SVG Export Plug-In . SVG Version: 6.00 Build 0)  -->
<svg version="1.1" id="Layer_1" xmlns="http://www.w3.org/2000/svg" xmlns:xlink="http://www.w3.org/1999/xlink" x="0px" y="0px"
	 viewBox="0 0 512 512" style="enable-background:new 0 0 512 512;" xml:space="preserve">
<style type="text/css">
	.st0{fill:#FFCCBC;}
	.st1{fill:#FFCC80;}
	.st2{fill:#FFCDD2;}
	.st3{fill:#935F2F;}
	.st4{fill:#6D4C41;}
</style>
<g id="row_4">
	<g id="teamwork">
		<path class="st0" d="M455.4,305.1c0.8-0.8,2.3-1.6,3.1-1.6c4.7-1.6,9.3-1.6,14,0.8c5.4,2.3,9.3,8.5,9.3,14c0,7-2.3,11.6-7,15.5
			c-0.8,0-0.8,0.8-1.6,0.8c-14,9.3-27.9,17.1-42.7,24.8c14.7-3.1,29.5-7,41.9-14.7c3.9-2.3,8.5-3.1,13.2-1.6
			c7,2.3,10.9,10.1,10.1,17.1c0,1.6-0.8,3.1-1.6,4.7c-0.8,2.3-2.3,3.9-4.7,5.4c-30.3,20.2-67.5,31.8-104.8,38.8
			c-15.5,3.1-31,3.9-46.6,3.1c-21.7-1.6-42.7,0-63.6,2.3c-41.9,4.7-110.2,23.3-164.6,43.5c-35.7-26.4-63.6-60.5-82.3-100.9
			c18.6-2.3,48.1-3.1,65.2-5.4c23.3-3.9,45.8-7.8,68.3-11.6c56.7-10.9,107.1-45,138.9-93.1c5.4,7,10.9,14,15.5,21
			c35.7-18.6,74.5-31.8,114.1-41.1c0.8,0,0.8,0,1.6,0c3.9-0.8,8.5,0,13.2,3.1c4.7,3.9,7,9.3,7,14.7c0,5.4-3.1,9.3-6.2,12.4
			c-0.8,0.8-1.6,1.6-2.3,1.6c-18.6,11.6-37.3,21-56.7,30.3c22.5-7,43.5-13.2,64.4-24.1c4.7-2.3,10.1-3.1,15.5,0
			c5.4,2.3,8.5,8.5,9.3,14c0.8,6.2-2.3,11.6-7,15.5c-0.8,0.8-1.6,0.8-2.3,1.6c-20.2,12.4-41.1,24.8-62.9,34.9
			C421.2,322.2,439.1,315.2,455.4,305.1z"/>
		<path class="st1" d="M314.9,413.8c0.8,3.9-0.8,7.8-3.9,10.9c-4.7,5.4-13.2,7-19.4,3.9c-3.9-2.3-6.2-6.2-7.8-10.9
			c-3.1-14.7-10.1-27.9-17.1-41.9c3.9,16.3,7,32.6,10.1,48.9c0,0.8,0,0.8,0,1.6c0.8,5.4-1.6,11.6-7,15.5c-4.7,3.9-11.6,4.7-17.1,2.3
			c-4.7-2.3-8.5-6.2-10.1-10.1c-0.8-1.6-0.8-2.3-0.8-3.9c-3.9-19.4-10.1-37.3-17.1-55.9c7,23.3,10.9,47.3,15.5,70.6
			c0,0.8,0,1.6,0.8,2.3c0,5.4-1.6,10.9-7,15.5c-4.7,3.9-10.9,4.7-16.3,2.3c-5.4-2.3-9.3-7-10.1-12.4c-5.4-23.3-14.7-43.5-24.8-65.2
			c6.2,21,10.9,41.1,14.7,62.9c0,0.8,0,2.3,0.8,3.1c0,4.7-1.6,9.3-4.7,13.2c-3.1,3.1-7.8,5.4-13.2,4.7c-0.8,0-1.6,0-2.3,0
			c-5.4-0.8-8.5-3.9-10.9-7.8c0-0.8-0.8-0.8-0.8-1.6c-20.2-37.3-36.5-76.8-46.6-118c-7.8,1.6-16.3,3.1-24.1,3.9
			c14-55.9,6.2-115.7-23.3-166.1c-12.4-21-24.8-41.1-37.3-61.3C54.1,87,79.7,58.3,110,35.8c24.1,56.7,64.4,139.7,93.9,182.4
			c12.4,17.9,24.8,34.9,40.4,50.5c10.9,11.6,21,24.1,28.7,37.3C293.2,340.8,309.5,377.3,314.9,413.8z"/>
		<path class="st2" d="M498.1,135.9c-18.6,2.3-46.6,7.8-63.6,10.1c-22.5,3.9-45,7.8-67.5,11.6c-56.7,10.9-107.1,45-138.9,93.9
			c-5.4-7-10.9-14-15.5-21c-35.7,17.9-74.5,31.8-114.1,40.4c-0.8,0-0.8,0-1.6,0c-3.9,0.8-8.5,0-13.2-3.1c-4.7-3.9-7-9.3-7-14.7
			c0.8-4.7,3.1-9.3,7-12.4c0.8-0.8,1.6-0.8,2.3-1.6c18.6-10.9,37.3-21,56.7-30.3c-22.5,7-43.5,13.2-64.4,24.1
			c-4.7,2.3-10.1,3.1-15.5,0c-5.4-2.3-8.5-7.8-9.3-14c-0.8-6.2,2.3-11.6,7-15.5c0.8-0.8,1.6-0.8,2.3-1.6
			c20.2-12.4,41.1-24.8,62.9-34.9c-17.9,7-35.7,14-52.8,24.1c-0.8,0.8-2.3,1.6-3.1,1.6c-4.7,1.6-9.3,1.6-14-0.8
			c-5.4-3.1-9.3-8.5-9.3-14.7s2.3-11.6,7-15.5c0.8,0,0.8-0.8,1.6-0.8c14-9.3,28.7-17.1,42.7-24.8c-14.7,3.1-29.5,7-41.9,14.7
			c-3.9,2.3-8.5,3.1-13.2,1.6c-7-2.3-10.9-9.3-10.1-17.1c0-1.6,0.8-3.1,1.6-4.7c0.8-2.3,2.3-3.9,4.7-5.4
			c30.3-20.2,67.5-31.8,104.8-38.8c15.5-3.1,31-3.9,46.6-3.1c21.7,1.6,42.7,0,63.6-2.3c42.7-5.4,110.2-24.1,163-44.2
			C451.5,63.7,479.5,97.1,498.1,135.9z"/>
		<g>
			<path class="st3" d="M473.2,344.7c-1.6-2.3-3.1-4.7-4.7-7c-12.4,7.8-24.8,15.5-38,21.7C445.3,356.4,460,352.5,473.2,344.7
				L473.2,344.7z"/>
			<path class="st3" d="M449.2,303.6c-14.7,9.3-30.3,17.9-45.8,25.6c16.3-6.2,32.6-12.4,48.1-21.7
				C450.7,306.7,450,305.1,449.2,303.6z"/>
			<path class="st3" d="M434.4,270.2c-0.8-2.3-1.6-4.7-2.3-7.8c-15.5,9.3-31,17.1-47.3,24.8C401.8,282.6,418.9,277.2,434.4,270.2z"
				/>
			<path class="st4" d="M253.6,188.7c7.8,14,17.9,26.4,28.7,37.3c12.4,12.4,23.3,26.4,33.4,40.4c34.9-17.9,71.4-30.3,109.4-39.6
				c-3.1-26.4-1.6-53.6,5.4-79.9c-7.8,1.6-16.3,2.3-24.1,3.9c-10.9-41.1-26.4-79.9-46.6-118c0-0.8-0.8-0.8-0.8-1.6
				c-2.3-3.9-5.4-7-10.9-7.8c-0.8,0-2.3,0-3.1,0c-4.7,0-9.3,1.6-12.4,4.7c-3.9,3.9-5.4,8.5-4.7,13.2c0,0.8,0,2.3,0,3.1
				c3.9,21.7,9.3,41.9,15.5,62.9c-9.3-21.7-19.4-41.9-24.8-65.2c-1.6-5.4-4.7-10.1-10.1-12.4S297,28,292.4,31.9
				c-5.4,3.9-7,10.1-7,15.5c0,0.8,0,1.6,0.8,2.3c4.7,24.1,8.5,47.3,15.5,70.6c-7-17.9-14-36.5-17.1-55.9c0-1.6,0-2.3-0.8-3.9
				c-1.6-4.7-4.7-8.5-10.1-10.1c-6.2-0.8-12.4,0-17.9,3.9c-4.7,3.9-7,10.1-6.2,15.5c0,0.8,0,0.8,0,1.6c2.3,16.3,6.2,32.6,10.1,48.9
				c-7-13.2-14-27.2-17.1-41.9c-0.8-3.9-3.1-8.5-7.8-10.9c-6.2-3.9-14.7-2.3-19.4,3.9c-2.3,3.1-3.9,7-3.9,10.9
				C217.9,119.6,234.2,156.1,253.6,188.7z"/>
			<path class="st3" d="M395.6,406.8c8.5,17.9,17.1,34.9,23.3,49.7c29.5-22.5,54.3-50.5,72.2-83.1c-0.8-0.8-1.6-2.3-2.3-3.1
				C462.4,389,429,399.8,395.6,406.8z"/>
		</g>
	</g>
</g>
<g id="row_3">
</g>
<g id="row_2">
</g>
<g id="row_1">
</g>
</svg>
