<?xml version="1.0" ?><!DOCTYPE svg  PUBLIC '-//W3C//DTD SVG 1.1//EN'  'http://www.w3.org/Graphics/SVG/1.1/DTD/svg11.dtd'><svg height="32px" style="fill-rule:evenodd;clip-rule:evenodd;stroke-linejoin:round;stroke-miterlimit:2;" version="1.1" width="32px" xml:space="preserve" xmlns="http://www.w3.org/2000/svg" xmlns:serif="http://www.serif.com/" xmlns:xlink="http://www.w3.org/1999/xlink"><path d="M28,27.5c0,-0 0.5,-0.044 0.5,-0.515l0,-0.985c0,-0.828 -0.672,-1.5 -1.5,-1.5c-3.904,-0 -18.096,-0 -22,-0c-0.398,-0 -0.779,0.158 -1.061,0.439c-0.281,0.282 -0.439,0.663 -0.439,1.061c0,-0 0,0.276 0,0c0,0.828 0.672,1.5 1.5,1.5l23,-0Z" style="fill:#28527a;"/><path d="M6,24.5l-1,-0c-0.398,-0 -0.779,0.158 -1.061,0.439c-0.281,0.282 -0.439,0.663 -0.439,1.061c0,0.828 0.672,1.5 1.5,1.5l1,-0c-0.828,-0 -1.5,-0.672 -1.5,-1.5c0,-0.398 0.158,-0.779 0.439,-1.061c0.282,-0.281 0.663,-0.439 1.061,-0.439Zm-2.5,1.5c0,0 0,0 0,0Zm1,0c0,0 0,0 0,0Z" style="fill:#507496;"/><path d="M13.5,13c0,0.276 0.224,0.5 0.5,0.5l2,-0c0.276,-0 0.5,-0.224 0.5,-0.5l0,-0.61c-0,0 0.864,-0.216 0.864,-0.216c0.668,-0.166 1.136,-0.766 1.136,-1.455c0,-0.724 0,-1.691 0,-1.691c0,-0.173 -0.089,-0.333 -0.236,-0.425c-0.147,-0.091 -0.33,-0.1 -0.485,-0.024c-0,0 -2.343,1.155 -3.442,1.698c-0.513,0.252 -0.837,0.774 -0.837,1.345c0,0.587 0,1.378 0,1.378Z" style="fill:#fbeeac;"/><path d="M15,13.5c-0.276,-0 -0.5,-0.224 -0.5,-0.5c-0,-0 -0,-0.791 -0,-1.378c-0,-0.571 0.324,-1.093 0.837,-1.345l3.083,-1.521c-0.04,-0.061 -0.092,-0.113 -0.156,-0.153c-0.147,-0.091 -0.33,-0.1 -0.485,-0.024c-0,0 -2.343,1.155 -3.442,1.698c-0.513,0.252 -0.837,0.774 -0.837,1.345c0,0.587 0,1.378 0,1.378c0,0.276 0.224,0.5 0.5,0.5l1,-0Z" style="fill:#e7dfb6;"/><path d="M6.996,10.5c-0.131,0.001 -0.257,0.054 -0.35,0.146l-1.707,1.708c-0.281,0.281 -0.439,0.662 -0.439,1.06l0,6.586c0,0.276 0.224,0.5 0.5,0.5l5,-0c0.276,-0 0.5,-0.224 0.5,-0.5l0,-3.191l0.704,0.352c0.523,0.262 1.151,0.195 1.608,-0.17c1.266,-1.013 4.5,-3.601 4.5,-3.601c0.166,-0.132 0.23,-0.355 0.16,-0.556c-0.07,-0.2 -0.26,-0.334 -0.472,-0.334l-4,-0c-0.133,-0 -0.26,0.053 -0.354,0.146l-0.74,0.741c-0,-0 -1.533,-0.8 -1.533,-0.8c0,-0 -0.927,-1.829 -0.927,-1.829c-0.086,-0.169 -0.26,-0.276 -0.45,-0.274l-2,0.016Z" style="fill:#28527a;"/><path d="M6,20.5c-0.276,0 -0.5,-0.224 -0.5,-0.5l-0,-6.586c-0,-0.398 0.158,-0.779 0.439,-1.06l1.707,-1.708c0.093,-0.092 0.219,-0.145 0.35,-0.146l1.089,-0.009c-0.029,-0.005 -0.059,-0.007 -0.089,-0.007l-2,0.016c-0.131,0.001 -0.257,0.054 -0.35,0.146l-1.707,1.708c-0.281,0.281 -0.439,0.662 -0.439,1.06l0,6.586c0,0.276 0.224,0.5 0.5,0.5l1,-0Z" style="fill:#507496;"/><path d="M4.584,20.277l1.773,2.659l-1.711,1.71c-0.143,0.143 -0.185,0.359 -0.108,0.545c0.077,0.187 0.26,0.309 0.462,0.309l10,-0c0.276,-0 0.5,-0.224 0.5,-0.5c0,-0 0,-0.794 0,-1.382c0,-0.568 -0.321,-1.088 -0.829,-1.342c-0,0 -3.375,-1.687 -3.375,-1.687c0,0 -0.942,-0.943 -0.942,-0.943c-0.048,-0.047 -0.103,-0.083 -0.162,-0.108l-0.001,-0c-0.059,-0.025 -0.124,-0.038 -0.191,-0.038l-5,-0c-0.276,0 -0.5,0.224 -0.5,0.5c0,0.103 0.031,0.198 0.084,0.277Z" style="fill:#8ac4d0;"/><path d="M5.5,20c-0,-0.276 -0,-0.5 -0,-0.5l-0.5,-0c-0.276,0 -0.5,0.224 -0.5,0.5c0,0.103 0.031,0.198 0.084,0.277l1.773,2.659l-1.711,1.71c-0.143,0.143 -0.185,0.359 -0.108,0.545c0.077,0.187 0.26,0.309 0.462,0.309l1,-0c-0.202,-0 -0.385,-0.122 -0.462,-0.309c-0.077,-0.186 -0.035,-0.402 0.108,-0.545l1.711,-1.71l-1.773,-2.659c-0.053,-0.079 -0.084,-0.174 -0.084,-0.277Z" style="fill:#a4cfd8;"/><path d="M10,7.5c0.276,0 0.5,-0.224 0.5,-0.5l0,-2c0,-0.276 -0.224,-0.5 -0.5,-0.5l-3,0c-0.828,0 -1.5,0.672 -1.5,1.5c0,0.45 0,0.9 0,0.986c0,0.47 0.5,0.514 0.5,0.514c0,0 4,0 4,0Z" style="fill:#28527a;"/><path d="M10,4.5c0,0 -3,0 -3,0c-0.828,0 -1.5,0.672 -1.5,1.5c0,0.45 0,0.9 0,0.986c0,0.47 0.5,0.514 0.5,0.514l1,0c-0,-0 -0.5,-0.044 -0.5,-0.514c-0,-0.086 -0,-0.536 -0,-0.986c-0,-0.828 0.672,-1.5 1.5,-1.5l2,0Z" style="fill:#507496;"/><path d="M6,6.5c-0.276,0 -0.5,0.224 -0.5,0.5l0,2c0,1.38 1.12,2.5 2.5,2.5c1.38,-0 2.5,-1.114 2.5,-2.494c0,-1.104 0,-2.006 0,-2.006c0,-0.133 -0.053,-0.26 -0.146,-0.354c-0.094,-0.093 -0.221,-0.146 -0.354,-0.146l-4,0Z" style="fill:#fbeeac;"/><path d="M6.5,9l-0,-2.5l-0.5,0c-0.276,0 -0.5,0.224 -0.5,0.5l0,2c0,1.38 1.12,2.5 2.5,2.5c0.171,-0 0.339,-0.017 0.501,-0.05c-1.141,-0.232 -2.001,-1.241 -2.001,-2.45Z" style="fill:#e7dfb6;"/></svg>