<?xml version="1.0" ?><svg enable-background="new 0 0 64 64" height="64px" version="1.1" viewBox="0 0 64 64" width="64px" xml:space="preserve" xmlns="http://www.w3.org/2000/svg" xmlns:xlink="http://www.w3.org/1999/xlink"><g id="Guide"/><g id="Layer_1"><g><g><polygon fill="#BF9B5C" points="11.4091845,15.9527969 31.993679,32.7634315 26.4790382,37.2614937 7,21.3657646    "/><path d="M26.4794922,37.9072266L6.296875,21.4375l5.0410156-6.1889648l21.4472656,17.5151367     L26.4794922,37.9072266z M7.703125,21.2939453l18.7763672,15.3222656l4.7236328-3.8525391L11.4804688,16.6567383     L7.703125,21.2939453z" fill="#383838"/></g><g><polygon fill="#BF9B5C" points="52.6670494,49.6376572 41.5743294,49.5867805 32.0063972,41.7723503 37.5209618,37.2742119         "/><path d="M54.078125,50.144043l-12.6835938-0.0581055l-10.1787109-8.3134766l6.3046875-5.1435547     L54.078125,50.144043z M41.7539062,49.0878906l9.5019531,0.043457L37.5205078,37.9199219l-4.7226562,3.8525391     L41.7539062,49.0878906z" fill="#383838"/></g><g><polygon fill="#BF9B5C" points="57,21.3657646 37.5209618,37.2742119 32.0063972,41.7723503 22.4256706,49.5867805      11.3202305,49.6376572 26.4790382,37.2614937 31.993679,32.7634315 52.5781746,15.9527969    "/><path d="M9.9091797,50.144043l42.7402344-34.8950195l5.0537109,6.1875L22.6044922,50.0859375L9.9091797,50.144043     z M52.5068359,16.65625L12.7314453,49.1313477l9.515625-0.043457L56.296875,21.2949219L52.5068359,16.65625z" fill="#383838"/></g></g><g><polygon fill="#FFCE7B" points="49.8170471,18.2200584 46.665699,14.3623428 31.9955349,26.3429489 17.3253708,14.3623428     14.1830311,18.2200584 32.0046005,32.7634315   "/><path d="M32.0048828,33.2636719c-0.1123047,0-0.2236328-0.0375977-0.3164062-0.112793l-17.8222656-14.543457    c-0.2138672-0.1743164-0.2451172-0.4892578-0.0712891-0.703125L16.9375,14.0463867    c0.0839844-0.1025391,0.2050781-0.1679688,0.3369141-0.1816406c0.1376953-0.012207,0.2646484,0.0258789,0.3671875,0.1103516    l14.3535156,11.722168l14.3544922-11.722168c0.2138672-0.1733398,0.5283203-0.144043,0.7041016,0.0708008l3.1513672,3.8579102    c0.0830078,0.1030273,0.1230469,0.2348633,0.109375,0.3666992c-0.0126953,0.1318359-0.078125,0.2529297-0.1806641,0.3369141    l-17.8125,14.543457C32.2294922,33.2260742,32.1171875,33.2636719,32.0048828,33.2636719z M14.8857422,18.1484375    l17.1191406,13.9697266l17.1083984-13.96875l-2.5185547-3.0834961L32.3115234,26.7299805    c-0.1835938,0.1503906-0.4492188,0.1503906-0.6328125,0L17.3964844,15.0664062L14.8857422,18.1484375z" fill="#383838"/></g><g><circle cx="32.0000381" cy="37.2742119" fill="#BF9B5C" r="1.25"/><path d="M32,39.0244141c-0.9648438,0-1.75-0.7851562-1.75-1.75s0.7851562-1.75,1.75-1.75s1.75,0.7851562,1.75,1.75    S32.9648438,39.0244141,32,39.0244141z M32,36.5244141c-0.4130859,0-0.75,0.3364258-0.75,0.75s0.3369141,0.75,0.75,0.75    s0.75-0.3364258,0.75-0.75S32.4130859,36.5244141,32,36.5244141z" fill="#383838"/></g></g></svg>