<?xml version="1.0" ?><!DOCTYPE svg  PUBLIC '-//W3C//DTD SVG 1.1//EN'  'http://www.w3.org/Graphics/SVG/1.1/DTD/svg11.dtd'><svg height="32px" style="fill-rule:evenodd;clip-rule:evenodd;stroke-linejoin:round;stroke-miterlimit:2;" version="1.1" width="32px" xml:space="preserve" xmlns="http://www.w3.org/2000/svg" xmlns:serif="http://www.serif.com/" xmlns:xlink="http://www.w3.org/1999/xlink"><path d="M3.5,19l-0,6c-0,0.276 0.224,0.5 0.5,0.5l7,0c0.276,0 0.5,-0.224 0.5,-0.5l-0,-2.501c-0,-0.552 -0.447,-0.999 -0.999,-0.999c-0.001,0 -0.001,0 -0.001,0l-0,-2.5c-0,-0.276 -0.224,-0.5 -0.5,-0.5l-6,0c-0.276,0 -0.5,0.224 -0.5,0.5Zm18,1.5l-0.5,0c-0.276,0 -0.5,0.224 -0.5,0.5l-0,4c-0,0.133 0.053,0.26 0.146,0.354c0.094,0.093 0.221,0.146 0.354,0.146l7,0c0.276,0 0.5,-0.224 0.5,-0.5l-0,-6c-0,-0.276 -0.224,-0.5 -0.5,-0.5l-6,0c-0.276,0 -0.5,0.224 -0.5,0.5l-0,1.5Z" style="fill:#28527a;"/><path d="M5,18.5l-1,0c-0.276,0 -0.5,0.224 -0.5,0.5l-0,6c-0,0.276 0.224,0.5 0.5,0.5l1,0c-0.276,0 -0.5,-0.224 -0.5,-0.5l0,-6c0,-0.276 0.224,-0.5 0.5,-0.5Z" style="fill:#507496;"/><path d="M26,22.5l-3,0c-0.276,0 -0.5,0.224 -0.5,0.5c0,0.276 0.224,0.5 0.5,0.5l3,0c0.276,0 0.5,-0.224 0.5,-0.5c-0,-0.276 -0.224,-0.5 -0.5,-0.5Zm-16.992,0l-3,0c-0.276,0 -0.5,0.224 -0.5,0.5c0,0.276 0.224,0.5 0.5,0.5l3,0c0.276,0 0.5,-0.224 0.5,-0.5c0,-0.276 -0.224,-0.5 -0.5,-0.5Z" style="fill:#f4d160;"/><path d="M23.5,22.5l-0.5,0c-0.276,0 -0.5,0.224 -0.5,0.5c0,0.276 0.224,0.5 0.5,0.5l3,0c-0,0 -2.5,0 -2.5,0c-0.276,0 -0.5,-0.224 -0.5,-0.5c0,-0.276 0.224,-0.5 0.5,-0.5Zm-16.992,0l-0.5,0c-0.276,0 -0.5,0.224 -0.5,0.5c0,0.276 0.224,0.5 0.5,0.5l0.5,0c-0.276,0 -0.5,-0.224 -0.5,-0.5c0,-0.276 0.224,-0.5 0.5,-0.5Z" style="fill:#dcc26f;"/><path d="M14.5,25c-0,-0.276 -0.224,-0.5 -0.5,-0.5l-10,0c-0.828,0 -1.5,0.672 -1.5,1.5l0,3c0,0.276 0.224,0.5 0.5,0.5l11,0c0.133,0 0.26,-0.053 0.354,-0.146c0.093,-0.094 0.146,-0.221 0.146,-0.354l-0,-4Zm15,4l-0,-3c-0,-0.828 -0.672,-1.5 -1.5,-1.5l-10,0c-0.276,0 -0.5,0.224 -0.5,0.5l0,4c0,0.276 0.224,0.5 0.5,0.5l11,0c0.276,0 0.5,-0.224 0.5,-0.5Z" style="fill:#8ac4d0;"/><path d="M5,24.5l-1,0c-0.828,0 -1.5,0.672 -1.5,1.5l0,3c0,0.276 0.224,0.5 0.5,0.5l1,0c-0.276,0 -0.5,-0.224 -0.5,-0.5l-0,-3c-0,-0.828 0.672,-1.5 1.5,-1.5Z" style="fill:#a4cfd8;"/><path d="M10.5,25c-0,0.133 0.053,0.26 0.146,0.354c0.094,0.093 0.221,0.146 0.354,0.146l10,0c0.276,0 0.5,-0.224 0.5,-0.5l-0,-4c0,-0.133 -0.053,-0.26 -0.146,-0.353c-0.094,-0.094 -0.221,-0.147 -0.354,-0.147l-10,0c-0.276,0 -0.5,0.224 -0.5,0.5l-0,4Z" style="fill:#f4d160;"/><path d="M12,20.5l-1,0c-0.276,0 -0.5,0.224 -0.5,0.5l-0,4c-0,0.133 0.053,0.26 0.146,0.354c0.094,0.093 0.221,0.146 0.354,0.146l10,0c-0,0 -9,0 -9,0c-0.133,0 -0.26,-0.053 -0.354,-0.146c-0.093,-0.094 -0.146,-0.221 -0.146,-0.354l-0,-4c-0,-0.276 0.224,-0.5 0.5,-0.5Z" style="fill:#dcc26f;"/><path d="M18.008,29.5c0.133,0 0.26,-0.053 0.354,-0.147c0.094,-0.094 0.146,-0.221 0.146,-0.354c0,-0 -0.008,-2.895 -0.008,-3.999c-0,-1.38 -1.112,-2.5 -2.492,-2.5c-1.379,0 -2.508,1.121 -2.508,2.5c-0,1.104 0.008,4.001 0.008,4.001c0.001,0.276 0.224,0.499 0.5,0.499l4,0Z" style="fill:#28527a;"/><path d="M15,29.5c-0.276,0 -0.499,-0.223 -0.5,-0.499c0,0 -0.008,-2.897 -0.008,-4.001c-0,-1.21 0.868,-2.22 2.012,-2.451c-0.16,-0.032 -0.326,-0.049 -0.496,-0.049c-1.379,0 -2.508,1.121 -2.508,2.5c-0,1.104 0.008,4.001 0.008,4.001c0.001,0.276 0.224,0.499 0.5,0.499l0.992,0Z" style="fill:#507496;"/><path d="M28.5,6.025c0,-0.29 -0.224,-0.525 -0.5,-0.525l-2,0c-0.276,0 -0.5,0.235 -0.5,0.525l0,9.455c0,0.29 0.224,0.525 0.5,0.525l2,0c0.276,0 0.5,-0.235 0.5,-0.525l0,-9.455Zm-22,0c-0,-0.29 -0.224,-0.525 -0.5,-0.525l-2,0c-0.276,0 -0.5,0.235 -0.5,0.525l-0,9.455c-0,0.29 0.224,0.525 0.5,0.525l2,0c0.276,0 0.5,-0.235 0.5,-0.525l-0,-9.455Z" style="fill:#f4d160;"/><path d="M27,5.5l-1,0c-0.276,0 -0.5,0.235 -0.5,0.525l0,9.455c0,0.29 0.224,0.525 0.5,0.525l1,0c-0.276,0 -0.5,-0.235 -0.5,-0.525l0,-9.455c0,-0.29 0.224,-0.525 0.5,-0.525Zm-22,0l-1,0c-0.276,0 -0.5,0.235 -0.5,0.525l-0,9.455c-0,0.29 0.224,0.525 0.5,0.525l1,0c-0.276,0 -0.5,-0.235 -0.5,-0.525l0,-9.455c0,-0.29 0.224,-0.525 0.5,-0.525Z" style="fill:#dcc26f;"/><path d="M9.5,12.5l-3.5,0c-0.276,0 -0.5,0.224 -0.5,0.5l-0,2l-1.5,0c-0.276,0 -0.5,0.224 -0.5,0.5l0,3.5c0,0.276 0.224,0.5 0.5,0.5l5.5,0l-0,1.498c-0,0.276 0.224,0.5 0.5,0.5l12,0.002c0.133,0 0.26,-0.053 0.354,-0.146c0.093,-0.094 0.146,-0.221 0.146,-0.354l0,-1.5l5.5,0c0.133,0 0.26,-0.053 0.354,-0.146c0.093,-0.094 0.146,-0.221 0.146,-0.354l-0,-3.5c-0,-0.276 -0.224,-0.5 -0.5,-0.5l-1.5,0l-0,-2c-0,-0.276 -0.224,-0.5 -0.5,-0.5l-3.5,0l-0,-0.5c-0,-0.276 -0.224,-0.5 -0.5,-0.5l-12,0c-0.276,0 -0.5,0.224 -0.5,0.5l-0,0.5Z" style="fill:#8ac4d0;"/><path d="M5,15l-1,0c-0.276,0 -0.5,0.224 -0.5,0.5l0,3.5c0,0.276 0.224,0.5 0.5,0.5l5.5,0l-0,1.498c-0,0.276 0.224,0.5 0.5,0.5l1,0c-0.276,0 -0.5,-0.224 -0.5,-0.5l-0,-1.498l-5.5,0c-0.276,0 -0.5,-0.224 -0.5,-0.5l-0,-3.5c-0,-0.276 0.224,-0.5 0.5,-0.5Zm6,-3.5l-1,0c-0.276,0 -0.5,0.224 -0.5,0.5l-0,0.5l-3.5,0c-0.276,0 -0.5,0.224 -0.5,0.5l-0,2l1,0l-0,-2c-0,-0.276 0.224,-0.5 0.5,-0.5l3.5,0l-0,-0.5c-0,-0.276 0.224,-0.5 0.5,-0.5Z" style="fill:#a4cfd8;"/><path d="M24.5,16.55c-1.141,0.232 -2,1.242 -2,2.45c0,0.276 0.224,0.5 0.5,0.5c1.732,0 1.737,0 4,0c0.276,0 0.5,-0.224 0.5,-0.5c-0,-1.208 -0.859,-2.218 -2,-2.45l-0,-0.55c-0,-0.276 -0.224,-0.5 -0.5,-0.5c-0.276,0 -0.5,0.224 -0.5,0.5l-0,0.55Zm-17.992,-0.001c-1.144,0.228 -2.008,1.24 -2.008,2.451c0,0.276 0.224,0.5 0.5,0.5l4,0c0.276,0 0.5,-0.224 0.5,-0.5c0,-1.206 -0.855,-2.213 -1.992,-2.448l0,-0.552c0,-0.276 -0.224,-0.5 -0.5,-0.5c-0.276,0 -0.5,0.224 -0.5,0.5l0,0.549Z" style="fill:#f4d160;"/><path d="M23,19.5c1.732,0 1,0 1,0c-0.276,0 -0.5,-0.224 -0.5,-0.5c0,-1.208 0.859,-2.218 2,-2.45l-0,-0.55c-0,-0.276 -0.224,-0.5 -0.5,-0.5c-0.276,0 -0.5,0.224 -0.5,0.5l-0,0.55c-1.141,0.232 -2,1.242 -2,2.45c0,0.276 0.224,0.5 0.5,0.5Zm-17,0c-0.276,0 -0.5,-0.224 -0.5,-0.5c0,-1.211 0.864,-2.223 2.008,-2.451l0,-0.549c0,-0.276 -0.224,-0.5 -0.5,-0.5c-0.276,0 -0.5,0.224 -0.5,0.5l0,0.549c-1.144,0.228 -2.008,1.24 -2.008,2.451c0,0.276 0.224,0.5 0.5,0.5l1,0Z" style="fill:#dcc26f;"/><path d="M15.5,14.018c-2.824,0.151 -5,1.593 -5,4.487c-0,0.276 0.224,0.5 0.5,0.5c3.492,0 6.089,0 10,0c0.276,0 0.5,-0.224 0.5,-0.5c-0,-2.894 -2.176,-4.336 -5,-4.487l0,-0.513c0,-0.276 -0.224,-0.5 -0.5,-0.5c-0.276,0 -0.5,0.224 -0.5,0.5l0,0.513Zm-5.5,-4.518l-0,0c-0.133,0 -0.26,0.053 -0.354,0.147c-0.093,0.093 -0.146,0.22 -0.146,0.353l0,2c0,0.276 0.224,0.5 0.5,0.5l12,0c0.133,0 0.26,-0.053 0.354,-0.146c0.093,-0.094 0.146,-0.221 0.146,-0.354l-0,-2c-0,-0.276 -0.224,-0.5 -0.5,-0.5l-0,-0c0.276,-0 0.5,-0.224 0.5,-0.5c-0,-3.328 -2.627,-5.309 -6,-5.487l-0,-1.513c-0,-0.276 -0.224,-0.5 -0.5,-0.5c-0.276,0 -0.5,0.224 -0.5,0.5l-0,1.513c-3.373,0.178 -6,2.159 -6,5.487c0,0.276 0.224,0.5 0.5,0.5Z" style="fill:#28527a;"/><path d="M12,19.005c-0.276,0 -0.5,-0.224 -0.5,-0.5c0,-2.894 2.176,-4.336 5,-4.487l0,0l0,-0.513c0,-0.276 -0.224,-0.5 -0.5,-0.5c-0.276,0 -0.5,0.224 -0.5,0.5l0,0.513c-2.824,0.151 -5,1.593 -5,4.487c-0,0.276 0.224,0.5 0.5,0.5l1,0Zm-1,-6.505c-0.276,0 -0.5,-0.224 -0.5,-0.5l0,-2c-0,-0.133 0.053,-0.26 0.146,-0.353c0.094,-0.094 0.221,-0.147 0.354,-0.147l0,0c-0.276,0 -0.5,-0.224 -0.5,-0.5c0,-3.328 2.627,-5.309 6,-5.487l-0,0l-0,-1.513c-0,-0.276 -0.224,-0.5 -0.5,-0.5c-0.276,0 -0.5,0.224 -0.5,0.5l-0,1.513c-3.373,0.178 -6,2.159 -6,5.487c0,0.276 0.224,0.5 0.5,0.5l-0,0c-0.133,0 -0.26,0.053 -0.354,0.147c-0.093,0.093 -0.146,0.22 -0.146,0.353l0,2c0,0.276 0.224,0.5 0.5,0.5l1,0Z" style="fill:#507496;"/><path d="M17.5,10.497l0,1c0,0.276 0.224,0.5 0.5,0.5c0.276,0 0.5,-0.224 0.5,-0.5l0,-1c0,-0.276 -0.224,-0.5 -0.5,-0.5c-0.276,0 -0.5,0.224 -0.5,0.5Zm-6,-0l-0,1c-0,0.276 0.224,0.5 0.5,0.5c0.276,-0 0.5,-0.224 0.5,-0.5l-0,-1c-0,-0.276 -0.224,-0.5 -0.5,-0.5c-0.276,-0 -0.5,0.224 -0.5,0.5Zm2,-0l-0,1c-0,0.276 0.224,0.5 0.5,0.5c0.276,-0 0.5,-0.224 0.5,-0.5l-0,-1c-0,-0.276 -0.224,-0.5 -0.5,-0.5c-0.276,-0 -0.5,0.224 -0.5,0.5Zm2,-0l0,1c0,0.276 0.224,0.5 0.5,0.5c0.276,-0 0.5,-0.224 0.5,-0.5l0,-1c0,-0.276 -0.224,-0.5 -0.5,-0.5c-0.276,-0 -0.5,0.224 -0.5,0.5Zm4,-0l0,1c0,0.276 0.224,0.5 0.5,0.5c0.276,-0 0.5,-0.224 0.5,-0.5l-0,-1c-0,-0.276 -0.224,-0.5 -0.5,-0.5c-0.276,-0 -0.5,0.224 -0.5,0.5Z" style="fill:#f4d160;"/><path d="M26.5,3.631c-0.184,0.1 -0.356,0.258 -0.504,0.474c-0.292,0.428 -0.496,1.116 -0.496,1.895c-0,0.276 0.224,0.5 0.5,0.5c0.615,0 1.005,0 2,0c0.276,0 0.5,-0.224 0.5,-0.5c-0,-0.779 -0.204,-1.467 -0.496,-1.895c-0.148,-0.216 -0.32,-0.374 -0.504,-0.474l-0,-0.631c0,-0.276 -0.224,-0.5 -0.5,-0.5c-0.276,0 -0.5,0.224 -0.5,0.5l-0,0.631Zm-22,0.004c-0.181,0.101 -0.351,0.257 -0.495,0.469c-0.293,0.429 -0.497,1.117 -0.497,1.896c0,0.276 0.224,0.5 0.5,0.5l2,0c0.276,0 0.5,-0.224 0.5,-0.5c0,-0.779 -0.204,-1.467 -0.496,-1.896c-0.15,-0.218 -0.325,-0.378 -0.512,-0.478l-0,-0.626c-0,-0.276 -0.224,-0.5 -0.5,-0.5c-0.276,0 -0.5,0.224 -0.5,0.5l-0,0.635Z" style="fill:#28527a;"/><path d="M26.989,6.5c-0.275,-0.002 -0.497,-0.225 -0.497,-0.5c-0,-0.779 0.204,-1.467 0.496,-1.895c0.147,-0.216 0.32,-0.374 0.504,-0.474l-0,-0.631c-0,-0.022 0.001,-0.043 0.004,-0.064c-0.031,-0.246 -0.242,-0.436 -0.496,-0.436c-0.276,0 -0.5,0.224 -0.5,0.5l-0,0.631c-0.184,0.1 -0.356,0.258 -0.504,0.474c-0.292,0.428 -0.496,1.116 -0.496,1.895c-0,0.276 0.224,0.5 0.5,0.5l0.989,0Zm-21.989,0c-0.276,0 -0.5,-0.224 -0.5,-0.5c-0,-0.779 0.204,-1.467 0.496,-1.896c0.145,-0.212 0.315,-0.368 0.496,-0.469l-0,-0.635c-0,-0.021 0.001,-0.043 0.004,-0.064c-0.031,-0.245 -0.242,-0.436 -0.496,-0.436c-0.276,0 -0.5,0.224 -0.5,0.5l-0,0.635c-0.181,0.101 -0.351,0.257 -0.495,0.469c-0.293,0.429 -0.497,1.117 -0.497,1.896c0,0.276 0.224,0.5 0.5,0.5l0.992,0Z" style="fill:#507496;"/></svg>