<?xml version="1.0" encoding="utf-8"?>
<!-- Generator: Adobe Illustrator 25.3.1, SVG Export Plug-In . SVG Version: 6.00 Build 0)  -->
<svg version="1.1" id="Layer_1" xmlns:serif="http://www.serif.com/"
	 xmlns="http://www.w3.org/2000/svg" xmlns:xlink="http://www.w3.org/1999/xlink" x="0px" y="0px" viewBox="0 0 512 512"
	 style="enable-background:new 0 0 512 512;" xml:space="preserve">
<style type="text/css">
	.st0{fill-rule:evenodd;clip-rule:evenodd;fill:#28527A;}
	.st1{fill-rule:evenodd;clip-rule:evenodd;fill:#507496;}
	.st2{fill-rule:evenodd;clip-rule:evenodd;fill:#FBEEAC;}
	.st3{fill-rule:evenodd;clip-rule:evenodd;fill:#E7DFB6;}
	.st4{fill-rule:evenodd;clip-rule:evenodd;fill:#8AC4D0;}
	.st5{fill-rule:evenodd;clip-rule:evenodd;fill:#A4CFD8;}
</style>
<path class="st0" d="M476.2,467.7c0,0,9.2-0.8,9.2-9.5v-18.1c0-15.2-12.4-27.6-27.6-27.6c-71.9,0-333.2,0-405,0
	c-7.3,0-14.3,2.9-19.5,8.1c-5.2,5.2-8.1,12.2-8.1,19.5c0,0,0,5.1,0,0c0,15.2,12.4,27.6,27.6,27.6H476.2z"/>
<path class="st1" d="M71.2,412.5H52.7c-7.3,0-14.3,2.9-19.5,8.1c-5.2,5.2-8.1,12.2-8.1,19.5c0,15.2,12.4,27.6,27.6,27.6h18.4
	c-15.2,0-27.6-12.4-27.6-27.6c0-7.3,2.9-14.3,8.1-19.5C56.8,415.4,63.8,412.5,71.2,412.5z M25.1,440.1L25.1,440.1z M43.5,440.1
	L43.5,440.1z"/>
<path class="st2" d="M209.2,200.8c0,5.1,4.1,9.2,9.2,9.2h36.8c5.1,0,9.2-4.1,9.2-9.2v-11.2l15.9-4c12.3-3.1,20.9-14.1,20.9-26.8
	c0-13.3,0-31.1,0-31.1c0-3.2-1.6-6.1-4.3-7.8c-2.7-1.7-6.1-1.8-8.9-0.4c0,0-43.1,21.3-63.4,31.3c-9.4,4.6-15.4,14.3-15.4,24.8
	C209.2,186.2,209.2,200.8,209.2,200.8z"/>
<path class="st3" d="M236.9,210c-5.1,0-9.2-4.1-9.2-9.2c0,0,0-14.6,0-25.4c0-10.5,6-20.1,15.4-24.8l56.8-28
	c-0.7-1.1-1.7-2.1-2.9-2.8c-2.7-1.7-6.1-1.8-8.9-0.4c0,0-43.1,21.3-63.4,31.3c-9.4,4.6-15.4,14.3-15.4,24.8c0,10.8,0,25.4,0,25.4
	c0,5.1,4.1,9.2,9.2,9.2H236.9z"/>
<path class="st0" d="M89.5,154.7c-2.4,0-4.7,1-6.4,2.7l-31.4,31.4c-5.2,5.2-8.1,12.2-8.1,19.5v121.3c0,5.1,4.1,9.2,9.2,9.2h92.1
	c5.1,0,9.2-4.1,9.2-9.2v-58.8l13,6.5c9.6,4.8,21.2,3.6,29.6-3.1c23.3-18.7,82.9-66.3,82.9-66.3c3.1-2.4,4.2-6.5,2.9-10.2
	c-1.3-3.7-4.8-6.1-8.7-6.1H200c-2.4,0-4.8,1-6.5,2.7l-13.6,13.6l-28.2-14.7l-17.1-33.7c-1.6-3.1-4.8-5.1-8.3-5
	C126.3,154.4,89.5,154.7,89.5,154.7z"/>
<path class="st1" d="M71.2,338.9c-5.1,0-9.2-4.1-9.2-9.2V208.4c0-7.3,2.9-14.3,8.1-19.5l31.4-31.4c1.7-1.7,4-2.7,6.4-2.7l20-0.2
	c-0.5-0.1-1.1-0.1-1.6-0.1l-36.8,0.3c-2.4,0-4.7,1-6.4,2.7l-31.4,31.4c-5.2,5.2-8.1,12.2-8.1,19.5v121.3c0,5.1,4.1,9.2,9.2,9.2H71.2
	z"/>
<path class="st4" d="M45.1,334.7l32.6,49l-31.5,31.5c-2.6,2.6-3.4,6.6-2,10c1.4,3.4,4.8,5.7,8.5,5.7h184.1c5.1,0,9.2-4.1,9.2-9.2
	c0,0,0-14.6,0-25.4c0-10.5-5.9-20-15.3-24.7l-62.1-31.1l-17.3-17.4c-0.9-0.9-1.9-1.5-3-2h0c-1.1-0.5-2.3-0.7-3.5-0.7H52.7
	c-5.1,0-9.2,4.1-9.2,9.2C43.5,331.5,44.1,333.3,45.1,334.7z"/>
<path class="st5" d="M61.9,329.6c0-5.1,0-9.2,0-9.2h-9.2c-5.1,0-9.2,4.1-9.2,9.2c0,1.9,0.6,3.6,1.5,5.1l32.6,49l-31.5,31.5
	c-2.6,2.6-3.4,6.6-2,10c1.4,3.4,4.8,5.7,8.5,5.7h18.4c-3.7,0-7.1-2.2-8.5-5.7c-1.4-3.4-0.6-7.4,2-10l31.5-31.5l-32.6-49
	C62.5,333.3,61.9,331.5,61.9,329.6z"/>
<path class="st0" d="M144.8,99.5c5.1,0,9.2-4.1,9.2-9.2V53.5c0-5.1-4.1-9.2-9.2-9.2H89.6c-15.2,0-27.6,12.4-27.6,27.6
	c0,8.3,0,16.6,0,18.2c0,8.7,9.2,9.5,9.2,9.5H144.8z"/>
<path class="st1" d="M144.8,44.3H89.6c-15.2,0-27.6,12.4-27.6,27.6c0,8.3,0,16.6,0,18.2c0,8.7,9.2,9.5,9.2,9.5h18.4
	c0,0-9.2-0.8-9.2-9.5c0-1.6,0-9.9,0-18.2c0-15.2,12.4-27.6,27.6-27.6H144.8z"/>
<path class="st2" d="M71.2,81.1c-5.1,0-9.2,4.1-9.2,9.2v36.8c0,25.4,20.6,46,46,46s46-20.5,46-45.9c0-20.3,0-36.9,0-36.9
	c0-2.4-1-4.8-2.7-6.5c-1.7-1.7-4.1-2.7-6.5-2.7C144.8,81.1,71.2,81.1,71.2,81.1z"/>
<path class="st3" d="M80.4,127.1v-46h-9.2c-5.1,0-9.2,4.1-9.2,9.2v36.8c0,25.4,20.6,46,46,46c3.1,0,6.2-0.3,9.2-0.9
	C96.2,168,80.4,149.4,80.4,127.1z"/>
</svg>
