<?xml version="1.0" encoding="utf-8"?>
<!-- Generator: Adobe Illustrator 25.3.1, SVG Export Plug-In . SVG Version: 6.00 Build 0)  -->
<svg version="1.1" id="Layer_1" xmlns="http://www.w3.org/2000/svg" xmlns:xlink="http://www.w3.org/1999/xlink" x="0px" y="0px"
	 viewBox="0 0 512 512" style="enable-background:new 0 0 512 512;" xml:space="preserve">
<style type="text/css">
	.st0{fill:#BF9B5C;}
	.st1{fill:#383838;}
	.st2{fill:#FFCE7B;}
</style>
<g id="Guide">
</g>
<g id="Layer_1_1_">
	<g>
		<g>
			<polygon class="st0" points="57.2,103.8 253.8,264.4 201.1,307.3 15,155.5 			"/>
			<path class="st1" d="M201.1,313.5L8.3,156.2L56.5,97l204.9,167.3L201.1,313.5z M21.7,154.8l179.4,146.4l45.1-36.8L57.8,110.5
				L21.7,154.8z"/>
		</g>
		<g>
			<polygon class="st0" points="451.3,425.6 345.3,425.1 253.9,350.4 306.6,307.5 			"/>
			<path class="st1" d="M464.8,430.4l-121.2-0.6l-97.2-79.4l60.2-49.1L464.8,430.4z M347,420.3l90.8,0.4L306.6,313.6l-45.1,36.8
				L347,420.3z"/>
		</g>
		<g>
			<polygon class="st0" points="492.7,155.5 306.6,307.5 253.9,350.4 162.4,425.1 56.3,425.6 201.1,307.3 253.8,264.4 450.5,103.8 
							"/>
			<path class="st1" d="M42.8,430.4L451.1,97l48.3,59.1L164.1,429.9L42.8,430.4z M449.8,110.5l-380,310.3l90.9-0.4L486,154.8
				L449.8,110.5z"/>
		</g>
	</g>
	<g>
		<polygon class="st2" points="424.1,125.4 394,88.6 253.8,203 113.7,88.6 83.7,125.4 253.9,264.4 		"/>
		<path class="st1" d="M253.9,269.1c-1.1,0-2.1-0.4-3-1.1L80.6,129.1c-2-1.7-2.3-4.7-0.7-6.7l30-36.9c0.8-1,2-1.6,3.2-1.7
			c1.3-0.1,2.5,0.2,3.5,1.1l137.1,112L391,84.9c2-1.7,5-1.4,6.7,0.7l30.1,36.9c0.8,1,1.2,2.2,1,3.5c-0.1,1.3-0.7,2.4-1.7,3.2
			L256.9,268.1C256.1,268.8,255,269.1,253.9,269.1z M90.4,124.7l163.5,133.5l163.4-133.5l-24.1-29.5L256.8,206.7
			c-1.8,1.4-4.3,1.4-6,0L114.4,95.3L90.4,124.7z"/>
	</g>
	<g>
		<circle class="st0" cx="253.9" cy="307.5" r="11.9"/>
		<path class="st1" d="M253.9,324.2c-9.2,0-16.7-7.5-16.7-16.7c0-9.2,7.5-16.7,16.7-16.7c9.2,0,16.7,7.5,16.7,16.7
			C270.6,316.7,263.1,324.2,253.9,324.2z M253.9,300.3c-3.9,0-7.2,3.2-7.2,7.2s3.2,7.2,7.2,7.2s7.2-3.2,7.2-7.2
			S257.8,300.3,253.9,300.3z"/>
	</g>
</g>
</svg>
