<?xml version="1.0" encoding="utf-8"?>
<!-- Generator: Adobe Illustrator 25.3.1, SVG Export Plug-In . SVG Version: 6.00 Build 0)  -->
<svg version="1.1"
	 id="Layer_1" xmlns:cc="http://creativecommons.org/ns#" xmlns:dc="http://purl.org/dc/elements/1.1/" xmlns:rdf="http://www.w3.org/1999/02/22-rdf-syntax-ns#"
	 xmlns="http://www.w3.org/2000/svg" xmlns:xlink="http://www.w3.org/1999/xlink" x="0px" y="0px" viewBox="0 0 512 512"
	 style="enable-background:new 0 0 512 512;" xml:space="preserve">
<style type="text/css">
	.st0{fill:#16A085;}
	.st1{fill:#ECF0F1;}
	.st2{fill:#BDC3C7;}
	.st3{fill:#1ABC9C;}
</style>
<g transform="translate(0 -1028.4)">
	<path class="st0" d="M69.1,1196.4v44v22v66v22v110v22c0,24.3,19.7,44,44,44h308c24.3,0,44-19.7,44-44v-22v-110v-88v-66H69.1z"/>
	<path class="st1" d="M69.1,1174.4v44v22v66v22v110v22c0,24.2,19.7,44,44,44h308c24.3,0,44-19.8,44-44v-22v-110v-88v-66H69.1z"/>
	<path class="st2" d="M69.1,1152.4v44v22v66v22v110v22c0,24.2,19.7,44,44,44h308c24.3,0,44-19.8,44-44v-22v-110v-88v-66H69.1z"/>
	<path class="st1" d="M69.1,1130.4v44v22v66v22v110v22c0,24.2,19.7,44,44,44h308c24.3,0,44-19.8,44-44v-22v-110v-88v-66H69.1z"/>
	<path class="st0" d="M113.1,1042.4c-24.3,0-44,19.7-44,44v22v88v44v22v66v22v110v22c0,24.3,19.7,44,44,44h44v-22h-33
		c-18.2,0-33-14.8-33-33s14.8-33,33-33h275h22c24.3,0,44-19.7,44-44v-22v-110v-88v-66v-22c0-24.3-19.7-44-44-44h-88H113.1z"/>
	<path class="st3" d="M179.1,1042.4v396h22h198h22c24.3,0,44-19.7,44-44v-22v-110v-88v-66v-22c0-24.3-19.7-44-44-44h-88h-132H179.1z
		"/>
</g>
</svg>
