<?xml version="1.0" ?><svg height="32" id="svg874" version="1.1" viewBox="0 0 32 32" width="32" xml:space="preserve" xmlns="http://www.w3.org/2000/svg" xmlns:cc="http://creativecommons.org/ns#" xmlns:dc="http://purl.org/dc/elements/1.1/" xmlns:inkscape="http://www.inkscape.org/namespaces/inkscape" xmlns:rdf="http://www.w3.org/1999/02/22-rdf-syntax-ns#" xmlns:sodipodi="http://sodipodi.sourceforge.net/DTD/sodipodi-0.dtd" xmlns:svg="http://www.w3.org/2000/svg"><defs id="defs878"><marker id="DotM" orient="auto" refX="0.0" refY="0.0" style="overflow:visible"><path d="M -2.5,-1.0 C -2.5,1.7600000 -4.7400000,4.0 -7.5,4.0 C -10.260000,4.0 -12.5,1.7600000 -12.5,-1.0 C -12.5,-3.7600000 -10.260000,-6.0 -7.5,-6.0 C -4.7400000,-6.0 -2.5,-3.7600000 -2.5,-1.0 z " id="path1360" style="fill-rule:evenodd;stroke:#000000;stroke-width:1pt;stroke-opacity:1;fill:#000000;fill-opacity:1" transform="scale(0.4) translate(7.4, 1)"/></marker></defs><g id="layer7" style="display:inline"><g id="g4855" style="stroke-width:1.04397261" transform="matrix(0.91753317,0,0,1,1.3194713,0)"><path d="m 27.808103,18.913781 c 0.761401,-1.782997 2.255496,-3.109442 1.46622,-6.907755 C 28.384583,7.7242281 25.179486,7.0433173 22.2801,5.909544 19.942386,4.9954067 16.047504,2.5137159 16.047504,2.5137159 l 0.0038,0.00453 c 0,0 -3.99364,2.4957991 -6.3313534,3.4099365 -2.899387,1.1337734 -6.1044827,1.8146841 -6.994224,6.0964816 -0.7892749,3.798313 0.7048196,5.124758 1.4662207,6.907754" id="path1119" style="opacity:1;fill:#67a9a0;fill-opacity:1;stroke:#000000;stroke-width:1.06452191;stroke-linecap:round;stroke-linejoin:round;paint-order:fill markers stroke"/></g><rect height="10.372781" id="rect1056-7" rx="0" ry="0" style="opacity:1;fill:#99676b;fill-opacity:1;stroke:#000000;stroke-width:1.01968372;stroke-linecap:round;stroke-linejoin:round;paint-order:fill markers stroke" width="23.912823" x="4.0871768" y="19.110165"/><path d="m 13.247403,29 0.03701,-3.666165 c 0.01396,-1.382952 2.759172,-2.074556 2.759172,-2.074556 v 0 c 0,0 2.773134,0.691604 2.759171,2.074556 L 18.765746,29" id="path1051-2" style="display:inline;opacity:1;fill:#dbbd5f;fill-opacity:1;stroke:#000000;stroke-width:1.01968372;stroke-linecap:butt;stroke-linejoin:round;paint-order:fill markers stroke"/><path d="m 6.8463488,29 v -3.320405 c 0,-0.922025 1.839448,-1.383038 1.839448,-1.383038 v 0 c 0,0 1.8394482,0.461013 1.8394482,1.383038 V 29" id="path1107" style="display:inline;opacity:1;fill:#dbbd5f;fill-opacity:1;stroke:#000000;stroke-width:1.01999998;stroke-linecap:butt;stroke-linejoin:round;stroke-miterlimit:4;stroke-dasharray:none;paint-order:fill markers stroke"/><path d="M 4.0871769,13.923776 H 28" id="path1121" style="opacity:1;fill:none;stroke:#000000;stroke-width:1.01968372;stroke-linecap:round;stroke-linejoin:round;paint-order:fill markers stroke"/><path d="m 21.496438,29 v -3.320405 c 0,-0.922025 1.839447,-1.383038 1.839447,-1.383038 v 0 c 0,0 1.839449,0.461013 1.839449,1.383038 V 29" id="path4877" style="display:inline;opacity:1;fill:#dbbd5f;fill-opacity:1;stroke:#000000;stroke-width:1.01999998;stroke-linecap:butt;stroke-linejoin:round;stroke-miterlimit:4;stroke-dasharray:none;paint-order:fill markers stroke"/></g></svg>